<svg width="168.0487548828125px" height="122.021240234375px" xmlns="http://www.w3.org/2000/svg" viewBox="165.97562255859376 13.9893798828125 168.0487548828125 122.021240234375" style="background: rgba(0, 0, 0, 0);" preserveAspectRatio="xMidYMid"><defs><filter id="editing-extrusion" x="-100%" y="-100%" width="300%" height="300%"><feFlood result="color1" flood-color="#444"></feFlood><feConvolveMatrix order="8,8" divisor="1" kernelMatrix="1 0 0 0 0 0 0 0 0 1 0 0 0 0 0 0 0 0 1 0 0 0 0 0 0 0 0 1 0 0 0 0 0 0 0 0 1 0 0 0 0 0 0 0 0 1 0 0 0 0 0 0 0 0 1 0 0 0 0 0 0 0 0 1" in="SourceAlpha" result="extrude"></feConvolveMatrix><feComposite in="color1" in2="extrude" result="comp-extrude" operator="in"></feComposite><feOffset dx="4" dy="4" in="comp-extrude" result="offset-extrude"></feOffset><feMerge><feMergeNode in="offset-extrude"></feMergeNode><feMergeNode in="SourceGraphic"></feMergeNode></feMerge></filter></defs><g filter="url(#editing-extrusion)"><g transform="translate(197.2696907222271, 97.45218849182129)"><path d="M33.15-16.83L33.15-16.83L33.15-16.83Q33.86-15.49 33.86-12.86L33.86-12.86L33.86-12.86Q33.86-10.24 31.90-8.42L31.90-8.42L31.90-8.42Q29.95-6.59 25.66-6.59L25.66-6.59L25.28-6.59L24.26 0L24.26 0Q22.53 1.28 19.46 1.28L19.46 1.28L19.46 1.28Q15.49 1.28 14.21-1.15L14.21-1.15L14.21-1.15Q13.70-2.05 13.70-2.82L13.70-2.82L13.70-2.82Q13.70-3.71 13.82-4.74L13.82-4.74L14.27-7.17L-0.45-8.70L-0.45-16.77L23.49-43.58L23.49-43.52L23.55-43.58L32.45-42.62L32.45-42.62Q29.44-30.34 26.88-16.19L26.88-16.19L28.35-16.19L28.35-16.19Q32-16.19 33.15-16.83ZM20.29-32.83L6.40-16.64L16.06-16.32L16.06-16.32Q18.18-25.73 20.29-32.83L20.29-32.83ZM38.02-15.23L38.02-15.23L38.02-15.23Q38.02-28.16 44.10-35.84L44.10-35.84L44.10-35.84Q50.18-43.52 60.61-43.52L60.61-43.52L60.61-43.52Q66.18-43.52 69.38-39.36L69.38-39.36L69.38-39.36Q72.58-35.20 72.58-28.26L72.58-28.26L72.58-28.26Q72.58-21.31 71.01-15.90L71.01-15.90L71.01-15.90Q69.44-10.50 66.62-6.66L66.62-6.66L66.62-6.66Q60.74 1.34 50.94 1.34L50.94 1.34L50.94 1.34Q44.35 1.34 41.18-2.72L41.18-2.72L41.18-2.72Q38.02-6.78 38.02-15.23ZM49.34-10.88L49.34-10.88L49.34-10.88Q49.34-4.42 51.46-4.42L51.46-4.42L51.46-4.42Q53.38-4.42 55.14-6.66L55.14-6.66L55.14-6.66Q56.90-8.90 58.30-12.67L58.30-12.67L58.30-12.67Q61.31-20.93 61.31-31.17L61.31-31.17L61.31-31.17Q61.31-34.62 60.77-36.19L60.77-36.19L60.77-36.19Q60.22-37.76 58.78-37.76L58.78-37.76L58.78-37.76Q57.34-37.76 55.65-35.26L55.65-35.26L55.65-35.26Q53.95-32.77 52.54-28.86L52.54-28.86L52.54-28.86Q49.34-19.97 49.34-10.88ZM87.49 0.83L83.39 0.70L83.39 0.70Q81.41 0.64 79.33 0.64L79.33 0.64L79.33 0.64Q77.25 0.64 75.20 0.90L75.20 0.90L75.20 0.90Q74.94-0.13 74.94-1.34L74.94-1.34L74.94-1.34Q74.94-3.90 76.38-5.44L76.38-5.44L76.38-5.44Q77.82-6.98 80.06-6.98L80.06-6.98L83.52-6.98L88.90-31.17L88.90-31.17Q86.91-29.18 82.82-29.18L82.82-29.18L82.82-29.18Q80.77-29.18 79.17-31.10L79.17-31.10L79.17-31.10Q77.57-32.90 77.31-35.46L77.31-35.46L77.31-35.46Q86.78-37.12 100.93-43.46L100.93-43.46L102.98-41.02L96.77-6.98L98.37-6.98L98.37-6.98Q102.21-6.98 104.19-7.68L104.19-7.68L104.19-7.68Q105.02-6.27 105.02-3.97L105.02-3.97L105.02-3.97Q105.02-1.66 103.33-0.29L103.33-0.29L103.33-0.29Q101.63 1.09 98.82 1.09L98.82 1.09L98.82 1.09Q93.12 1.09 87.49 0.83L87.49 0.83Z" fill="#ccc"></path></g></g><style>text {
  font-size: 64px;
  font-family: Arial Black;
  dominant-baseline: central;
  text-anchor: middle;
}</style></svg>