<svg width="171.44873046875px" height="122.021240234375px" xmlns="http://www.w3.org/2000/svg" viewBox="164.275634765625 13.9893798828125 171.44873046875 122.021240234375" style="background: rgba(0, 0, 0, 0);" preserveAspectRatio="xMidYMid"><defs><filter id="editing-extrusion" x="-100%" y="-100%" width="300%" height="300%"><feFlood result="color1" flood-color="#444"></feFlood><feConvolveMatrix order="8,8" divisor="1" kernelMatrix="1 0 0 0 0 0 0 0 0 1 0 0 0 0 0 0 0 0 1 0 0 0 0 0 0 0 0 1 0 0 0 0 0 0 0 0 1 0 0 0 0 0 0 0 0 1 0 0 0 0 0 0 0 0 1 0 0 0 0 0 0 0 0 1" in="SourceAlpha" result="extrude"></feConvolveMatrix><feComposite in="color1" in2="extrude" result="comp-extrude" operator="in"></feComposite><feOffset dx="4" dy="4" in="comp-extrude" result="offset-extrude"></feOffset><feMerge><feMergeNode in="offset-extrude"></feMergeNode><feMergeNode in="SourceGraphic"></feMergeNode></feMerge></filter></defs><g filter="url(#editing-extrusion)"><g transform="translate(195.56968995928764, 97.45218849182129)"><path d="M33.15-16.83L33.15-16.83L33.15-16.83Q33.86-15.49 33.86-12.86L33.86-12.86L33.86-12.86Q33.86-10.24 31.90-8.42L31.90-8.42L31.90-8.42Q29.95-6.59 25.66-6.59L25.66-6.59L25.28-6.59L24.26 0L24.26 0Q22.53 1.28 19.46 1.28L19.46 1.28L19.46 1.28Q15.49 1.28 14.21-1.15L14.21-1.15L14.21-1.15Q13.70-2.05 13.70-2.82L13.70-2.82L13.70-2.82Q13.70-3.71 13.82-4.74L13.82-4.74L14.27-7.17L-0.45-8.70L-0.45-16.77L23.49-43.58L23.49-43.52L23.55-43.58L32.45-42.62L32.45-42.62Q29.44-30.34 26.88-16.19L26.88-16.19L28.35-16.19L28.35-16.19Q32-16.19 33.15-16.83ZM20.29-32.83L6.40-16.64L16.06-16.32L16.06-16.32Q18.18-25.73 20.29-32.83L20.29-32.83ZM38.02-15.23L38.02-15.23L38.02-15.23Q38.02-28.16 44.10-35.84L44.10-35.84L44.10-35.84Q50.18-43.52 60.61-43.52L60.61-43.52L60.61-43.52Q66.18-43.52 69.38-39.36L69.38-39.36L69.38-39.36Q72.58-35.20 72.58-28.26L72.58-28.26L72.58-28.26Q72.58-21.31 71.01-15.90L71.01-15.90L71.01-15.90Q69.44-10.50 66.62-6.66L66.62-6.66L66.62-6.66Q60.74 1.34 50.94 1.34L50.94 1.34L50.94 1.34Q44.35 1.34 41.18-2.72L41.18-2.72L41.18-2.72Q38.02-6.78 38.02-15.23ZM49.34-10.88L49.34-10.88L49.34-10.88Q49.34-4.42 51.46-4.42L51.46-4.42L51.46-4.42Q53.38-4.42 55.14-6.66L55.14-6.66L55.14-6.66Q56.90-8.90 58.30-12.67L58.30-12.67L58.30-12.67Q61.31-20.93 61.31-31.17L61.31-31.17L61.31-31.17Q61.31-34.62 60.77-36.19L60.77-36.19L60.77-36.19Q60.22-37.76 58.78-37.76L58.78-37.76L58.78-37.76Q57.34-37.76 55.65-35.26L55.65-35.26L55.65-35.26Q53.95-32.77 52.54-28.86L52.54-28.86L52.54-28.86Q49.34-19.97 49.34-10.88ZM107.71-16.83L107.71-16.83L107.71-16.83Q108.42-15.49 108.42-12.86L108.42-12.86L108.42-12.86Q108.42-10.24 106.46-8.42L106.46-8.42L106.46-8.42Q104.51-6.59 100.22-6.59L100.22-6.59L99.84-6.59L98.82 0L98.82 0Q97.09 1.28 94.02 1.28L94.02 1.28L94.02 1.28Q90.05 1.28 88.77-1.15L88.77-1.15L88.77-1.15Q88.26-2.05 88.26-2.82L88.26-2.82L88.26-2.82Q88.26-3.71 88.38-4.74L88.38-4.74L88.83-7.17L74.11-8.70L74.11-16.77L98.05-43.58L98.05-43.52L98.11-43.58L107.01-42.62L107.01-42.62Q104-30.34 101.44-16.19L101.44-16.19L102.91-16.19L102.91-16.19Q106.56-16.19 107.71-16.83ZM94.85-32.83L80.96-16.64L90.62-16.32L90.62-16.32Q92.74-25.73 94.85-32.83L94.85-32.83Z" fill="#ccc"></path></g></g><style>text {
  font-size: 64px;
  font-family: Arial Black;
  dominant-baseline: central;
  text-anchor: middle;
}</style></svg>