<svg width="165.26496582031248px" height="122.021240234375px" xmlns="http://www.w3.org/2000/svg" viewBox="167.36751708984377 13.9893798828125 165.26496582031248 122.021240234375" style="background: rgba(0, 0, 0, 0);" preserveAspectRatio="xMidYMid"><defs><filter id="editing-extrusion" x="-100%" y="-100%" width="300%" height="300%"><feFlood result="color1" flood-color="#444"></feFlood><feConvolveMatrix order="8,8" divisor="1" kernelMatrix="1 0 0 0 0 0 0 0 0 1 0 0 0 0 0 0 0 0 1 0 0 0 0 0 0 0 0 1 0 0 0 0 0 0 0 0 1 0 0 0 0 0 0 0 0 1 0 0 0 0 0 0 0 0 1 0 0 0 0 0 0 0 0 1" in="SourceAlpha" result="extrude"></feConvolveMatrix><feComposite in="color1" in2="extrude" result="comp-extrude" operator="in"></feComposite><feOffset dx="4" dy="4" in="comp-extrude" result="offset-extrude"></feOffset><feMerge><feMergeNode in="offset-extrude"></feMergeNode><feMergeNode in="SourceGraphic"></feMergeNode></feMerge></filter></defs><g filter="url(#editing-extrusion)"><g transform="translate(197.59750291705132, 97.48718643188477)"><path d="M33.15-16.83L33.15-16.83L33.15-16.83Q33.86-15.49 33.86-12.86L33.86-12.86L33.86-12.86Q33.86-10.24 31.90-8.42L31.90-8.42L31.90-8.42Q29.95-6.59 25.66-6.59L25.66-6.59L25.28-6.59L24.26 0L24.26 0Q22.53 1.28 19.46 1.28L19.46 1.28L19.46 1.28Q15.49 1.28 14.21-1.15L14.21-1.15L14.21-1.15Q13.70-2.05 13.70-2.82L13.70-2.82L13.70-2.82Q13.70-3.71 13.82-4.74L13.82-4.74L14.27-7.17L-0.45-8.70L-0.45-16.77L23.49-43.58L23.49-43.52L23.55-43.58L32.45-42.62L32.45-42.62Q29.44-30.34 26.88-16.19L26.88-16.19L28.35-16.19L28.35-16.19Q32-16.19 33.15-16.83ZM20.29-32.83L6.40-16.64L16.06-16.32L16.06-16.32Q18.18-25.73 20.29-32.83L20.29-32.83ZM48.83 0.83L44.74 0.70L44.74 0.70Q42.75 0.64 40.67 0.64L40.67 0.64L40.67 0.64Q38.59 0.64 36.54 0.90L36.54 0.90L36.54 0.90Q36.29-0.13 36.29-1.34L36.29-1.34L36.29-1.34Q36.29-3.90 37.73-5.44L37.73-5.44L37.73-5.44Q39.17-6.98 41.41-6.98L41.41-6.98L44.86-6.98L50.24-31.17L50.24-31.17Q48.26-29.18 44.16-29.18L44.16-29.18L44.16-29.18Q42.11-29.18 40.51-31.10L40.51-31.10L40.51-31.10Q38.91-32.90 38.66-35.46L38.66-35.46L38.66-35.46Q48.13-37.12 62.27-43.46L62.27-43.46L64.32-41.02L58.11-6.98L59.71-6.98L59.71-6.98Q63.55-6.98 65.54-7.68L65.54-7.68L65.54-7.68Q66.37-6.27 66.37-3.97L66.37-3.97L66.37-3.97Q66.37-1.66 64.67-0.29L64.67-0.29L64.67-0.29Q62.98 1.09 60.16 1.09L60.16 1.09L60.16 1.09Q54.46 1.09 48.83 0.83L48.83 0.83ZM73.15-9.47L73.15-9.47L73.15-9.47Q75.07-6.98 79.62-6.98L79.62-6.98L79.62-6.98Q85.57-6.98 88.90-11.14L88.90-11.14L88.90-11.14Q91.14-14.02 92.16-19.20L92.16-19.20L92.16-19.20Q90.50-16.45 88.29-15.01L88.29-15.01L88.29-15.01Q86.08-13.57 83.01-13.57L83.01-13.57L83.01-13.57Q79.94-13.57 77.98-14.66L77.98-14.66L77.98-14.66Q76.03-15.74 74.82-17.54L74.82-17.54L74.82-17.54Q72.51-20.86 72.51-25.60L72.51-25.60L72.51-25.60Q72.51-30.34 74.18-33.66L74.18-33.66L74.18-33.66Q75.84-36.99 78.53-39.23L78.53-39.23L78.53-39.23Q83.78-43.71 90.75-43.71L90.75-43.71L90.75-43.71Q96.83-43.71 100.54-39.74L100.54-39.74L100.54-39.74Q104.38-35.52 104.38-27.97L104.38-27.97L104.38-27.97Q104.38-22.91 102.66-17.73L102.66-17.73L102.66-17.73Q100.93-12.54 97.79-8.32L97.79-8.32L97.79-8.32Q94.66-4.10 90.37-1.41L90.37-1.41L90.37-1.41Q86.08 1.28 81.22 1.28L81.22 1.28L81.22 1.28Q76.35 1.28 73.60-0.26L73.60-0.26L73.60-0.26Q70.85-1.79 70.85-4.61L70.85-4.61L70.85-4.61Q70.85-7.68 73.15-9.47ZM84.80-32.38L84.80-32.38L84.80-32.38Q84.22-30.66 84.00-28.90L84.00-28.90L84.00-28.90Q83.78-27.14 83.78-25.41L83.78-25.41L83.78-25.41Q83.78-23.68 84.77-22.08L84.77-22.08L84.77-22.08Q85.76-20.48 87.10-20.48L87.10-20.48L87.10-20.48Q88.45-20.48 89.50-21.25L89.50-21.25L89.50-21.25Q90.56-22.02 91.46-23.36L91.46-23.36L91.46-23.36Q93.31-26.30 93.31-29.82L93.31-29.82L93.31-29.82Q93.31-33.34 92.19-34.98L92.19-34.98L92.19-34.98Q91.07-36.61 89.28-36.61L89.28-36.61L89.28-36.61Q87.49-36.61 86.43-35.36L86.43-35.36L86.43-35.36Q85.38-34.11 84.80-32.38Z" fill="#ccc"></path></g></g><style>text {
  font-size: 64px;
  font-family: Arial Black;
  dominant-baseline: central;
  text-anchor: middle;
}</style></svg>